{
	"asset":{
		"generator":"Khronos glTF Blender I/O v4.1.63",
		"version":"2.0"
	},
	"extensionsUsed":[
		"KHR_materials_specular",
		"KHR_materials_ior"
	],
	"scene":0,
	"scenes":[
		{
			"name":"Scene",
			"nodes":[
				6
			]
		}
	],
	"nodes":[
		{
			"mesh":0,
			"name":"leaves_leaves_0"
		},
		{
			"children":[
				0
			],
			"name":"leaves"
		},
		{
			"mesh":1,
			"name":"tree_bark_0"
		},
		{
			"children":[
				1,
				2
			],
			"name":"tree"
		},
		{
			"children":[
				3
			],
			"name":"RootNode"
		},
		{
			"children":[
				4
			],
			"name":"92fb353c74d642f4a8ddfd7a6fdb1976.fbx"
		},
		{
			"children":[
				5
			],
			"name":"Sketchfab_model"
		}
	],
	"materials":[
		{
			"alphaCutoff":0.12976372241973877,
			"alphaMode":"MASK",
			"doubleSided":true,
			"extensions":{
				"KHR_materials_specular":{
					"specularColorTexture":{
						"index":0
					}
				},
				"KHR_materials_ior":{
					"ior":1000
				}
			},
			"name":"foliage",
			"normalTexture":{
				"index":1
			},
			"pbrMetallicRoughness":{
				"baseColorTexture":{
					"index":2
				},
				"metallicFactor":0,
				"metallicRoughnessTexture":{
					"index":3
				}
			}
		},
		{
			"extensions":{
				"KHR_materials_specular":{
					"specularColorTexture":{
						"index":4
					}
				},
				"KHR_materials_ior":{
					"ior":1000
				}
			},
			"name":"bark.001",
			"normalTexture":{
				"index":5
			},
			"occlusionTexture":{
				"index":6
			},
			"pbrMetallicRoughness":{
				"baseColorTexture":{
					"index":7
				},
				"metallicFactor":0,
				"metallicRoughnessTexture":{
					"index":6
				}
			}
		}
	],
	"meshes":[
		{
			"name":"leaves_leaves_0",
			"primitives":[
				{
					"attributes":{
						"POSITION":0,
						"NORMAL":1,
						"TEXCOORD_0":2,
						"TEXCOORD_1":3,
						"TEXCOORD_2":4,
						"TEXCOORD_3":5,
						"TEXCOORD_4":6
					},
					"indices":7,
					"material":0
				}
			]
		},
		{
			"name":"tree_bark_0.001",
			"primitives":[
				{
					"attributes":{
						"POSITION":8,
						"NORMAL":9,
						"TEXCOORD_0":10,
						"TEXCOORD_1":11,
						"TEXCOORD_2":12
					},
					"indices":13,
					"material":1
				}
			]
		}
	],
	"textures":[
		{
			"sampler":0,
			"source":0
		},
		{
			"sampler":0,
			"source":1
		},
		{
			"sampler":0,
			"source":2
		},
		{
			"sampler":0,
			"source":3
		},
		{
			"sampler":0,
			"source":4
		},
		{
			"sampler":0,
			"source":5
		},
		{
			"sampler":0,
			"source":6
		},
		{
			"sampler":0,
			"source":7
		}
	],
	"images":[
		{
			"mimeType":"image/png",
			"name":"leaves_specularGlossiness",
			"uri":"leaves_specularGlossiness.png"
		},
		{
			"mimeType":"image/png",
			"name":"leaves_normal",
			"uri":"leaves_normal.png"
		},
		{
			"mimeType":"image/png",
			"name":"leaves_diffuse",
			"uri":"leaves_diffuse.png"
		},
		{
			"mimeType":"image/png",
			"name":"leaves_specularGlossiness",
			"uri":"leaves_specularGlossiness-1.png"
		},
		{
			"mimeType":"image/png",
			"name":"bark_specularGlossiness",
			"uri":"bark_specularGlossiness.png"
		},
		{
			"mimeType":"image/png",
			"name":"bark_normal",
			"uri":"bark_normal.png"
		},
		{
			"mimeType":"image/png",
			"name":"bark_occlusion-bark_specularGlossiness.png",
			"uri":"bark_occlusion-bark_specularGlossiness_png.png"
		},
		{
			"mimeType":"image/png",
			"name":"bark_diffuse",
			"uri":"bark_diffuse.png"
		}
	],
	"accessors":[
		{
			"bufferView":0,
			"componentType":5126,
			"count":735,
			"max":[
				9.871906280517578,
				22.211034774780273,
				9.981551170349121
			],
			"min":[
				-8.251810073852539,
				8.583761215209961,
				-11.745896339416504
			],
			"type":"VEC3"
		},
		{
			"bufferView":1,
			"componentType":5126,
			"count":735,
			"type":"VEC3"
		},
		{
			"bufferView":2,
			"componentType":5126,
			"count":735,
			"type":"VEC2"
		},
		{
			"bufferView":3,
			"componentType":5126,
			"count":735,
			"type":"VEC2"
		},
		{
			"bufferView":4,
			"componentType":5126,
			"count":735,
			"type":"VEC2"
		},
		{
			"bufferView":5,
			"componentType":5126,
			"count":735,
			"type":"VEC2"
		},
		{
			"bufferView":6,
			"componentType":5126,
			"count":735,
			"type":"VEC2"
		},
		{
			"bufferView":7,
			"componentType":5123,
			"count":2352,
			"type":"SCALAR"
		},
		{
			"bufferView":8,
			"componentType":5126,
			"count":1819,
			"max":[
				7.1022114753723145,
				19.37671661376953,
				7.498924732208252
			],
			"min":[
				-6.108450889587402,
				-1.0703846216201782,
				-8.993557929992676
			],
			"type":"VEC3"
		},
		{
			"bufferView":9,
			"componentType":5126,
			"count":1819,
			"type":"VEC3"
		},
		{
			"bufferView":10,
			"componentType":5126,
			"count":1819,
			"type":"VEC2"
		},
		{
			"bufferView":11,
			"componentType":5126,
			"count":1819,
			"type":"VEC2"
		},
		{
			"bufferView":12,
			"componentType":5126,
			"count":1819,
			"type":"VEC2"
		},
		{
			"bufferView":13,
			"componentType":5123,
			"count":7596,
			"type":"SCALAR"
		}
	],
	"bufferViews":[
		{
			"buffer":0,
			"byteLength":8820,
			"byteOffset":0,
			"target":34962
		},
		{
			"buffer":0,
			"byteLength":8820,
			"byteOffset":8820,
			"target":34962
		},
		{
			"buffer":0,
			"byteLength":5880,
			"byteOffset":17640,
			"target":34962
		},
		{
			"buffer":0,
			"byteLength":5880,
			"byteOffset":23520,
			"target":34962
		},
		{
			"buffer":0,
			"byteLength":5880,
			"byteOffset":29400,
			"target":34962
		},
		{
			"buffer":0,
			"byteLength":5880,
			"byteOffset":35280,
			"target":34962
		},
		{
			"buffer":0,
			"byteLength":5880,
			"byteOffset":41160,
			"target":34962
		},
		{
			"buffer":0,
			"byteLength":4704,
			"byteOffset":47040,
			"target":34963
		},
		{
			"buffer":0,
			"byteLength":21828,
			"byteOffset":51744,
			"target":34962
		},
		{
			"buffer":0,
			"byteLength":21828,
			"byteOffset":73572,
			"target":34962
		},
		{
			"buffer":0,
			"byteLength":14552,
			"byteOffset":95400,
			"target":34962
		},
		{
			"buffer":0,
			"byteLength":14552,
			"byteOffset":109952,
			"target":34962
		},
		{
			"buffer":0,
			"byteLength":14552,
			"byteOffset":124504,
			"target":34962
		},
		{
			"buffer":0,
			"byteLength":15192,
			"byteOffset":139056,
			"target":34963
		}
	],
	"samplers":[
		{
			"magFilter":9729,
			"minFilter":9987
		}
	],
	"buffers":[
		{
			"byteLength":154248,
			"uri":"scene.bin"
		}
	]
}
